<svg xmlns="http://www.w3.org/2000/svg" id="Capa_1" enable-background="new 0 0 512 512" height="30" viewBox="0 0 512 512" width="30"><g><g><path d="m120.147 30.398c-2.286-3.389-5.649-5.906-9.545-7.142l-47.815-15.181c-6.421-2.039-13.279 1.514-15.318 7.935l-3.59 11.308c-2.039 6.421 1.514 13.279 7.935 15.318l41.8 13.271 43.427 64.383 30.062-20.276z" fill="#dcdcdc"/><path d="m139.785 388.585 10.89 72.775c3.71 24.794 25.006 43.14 50.076 43.14h128.848c25.07 0 46.366-18.346 50.076-43.14l10.89-72.775z" fill="#ffb3dd"/><path d="m442.366 170.584c7.445-35.498-13.021-70.911-47.496-82.183l-.015-.005-.005-.016c-11.272-34.475-46.684-54.941-82.182-47.496h-.001l-.078-.07c-26.995-24.153-67.831-24.153-94.826 0l-.079.07c-35.498-7.445-70.911 13.021-82.183 47.496l-.005.015-.016.005c-34.475 11.271-54.941 46.684-47.496 82.182l177.191 39.07z" fill="#ffc8e5"/><path d="m87.985 248.722 17.346 115.915c4.343 29.025 29.273 50.501 58.621 50.501h202.448c29.348 0 54.277-21.477 58.621-50.501l17.346-115.915-177.191-39.07z" fill="#9ae0eb"/><path d="m199.876 39.449c-28.929 1.298-55.001 20.262-64.375 48.931l-.005.015-.016.005c-34.475 11.271-54.941 46.684-47.496 82.182l49.222 10.853c9.356-53.931 31.482-102.664 62.67-141.986z" fill="#ffb3dd"/><path d="m442.366 170.583h-354.381c-14.541 0-26.329 11.788-26.329 26.329v25.482c0 14.541 11.788 26.329 26.329 26.329h354.382c14.541 0 26.329-11.788 26.329-26.329v-25.482c0-14.542-11.788-26.329-26.33-26.329z" fill="#ffb3dd"/><path d="m167.24 388.585h-27.454l10.89 72.775c3.71 24.794 25.006 43.14 50.076 43.14h72.605c-44.315-26.477-81.19-66.8-106.117-115.915z" fill="#ff9dd3"/><path d="m132.221 239.518c0-.184.006-.367.006-.551l-44.243 9.755 17.346 115.915c4.343 29.025 29.273 50.501 58.621 50.501h18.488c-31.58-49.332-50.218-110.004-50.218-175.62z" fill="#64d1e1"/><path d="m132.221 239.518c0-23.726 2.447-46.802 7.049-68.936h-51.285c-14.541 0-26.329 11.788-26.329 26.329v25.481c0 14.541 11.788 26.329 26.329 26.329h44.372c-.081-3.056-.136-6.122-.136-9.203z" fill="#ff9dd3"/><g fill="#fff"><ellipse cx="166.709" cy="339.156" rx="36.332" ry="28.933"/><ellipse cx="363.642" cy="339.156" rx="36.332" ry="28.933"/></g></g><g><path d="m187.883 288.953c-4.142 0-7.5 3.358-7.5 7.5v14.852c0 4.142 3.358 7.5 7.5 7.5s7.5-3.358 7.5-7.5v-14.852c0-4.142-3.358-7.5-7.5-7.5z"/><path d="m342.466 288.953c-4.142 0-7.5 3.358-7.5 7.5v14.852c0 4.142 3.358 7.5 7.5 7.5s7.5-3.358 7.5-7.5v-14.852c0-4.142-3.358-7.5-7.5-7.5z"/><path d="m290.48 305.209c-3.123-2.721-7.861-2.396-10.581.727-7.784 8.93-21.642 8.957-29.447 0-2.721-3.123-7.459-3.448-10.581-.727-3.123 2.722-3.448 7.459-.727 10.582 13.776 15.808 38.301 15.792 52.063 0 2.721-3.123 2.396-7.86-.727-10.582z"/><path d="m49.546 49.788 39.312 12.48 21.048 31.206c-21.481 16.354-33.44 43.022-30.498 70.716-14.513 3.807-25.251 17.034-25.251 32.724v25.481c0 16.41 11.746 30.123 27.271 33.185l16.486 110.168c3.275 21.885 17.337 41.345 38.491 50.925l6.853 45.797c2.061 13.768 9.003 26.354 19.55 35.44s24.023 14.09 37.944 14.09h128.847c13.921 0 27.396-5.004 37.943-14.09s17.49-21.672 19.55-35.44l6.853-45.797c21.146-9.578 35.215-29.031 38.491-50.925l16.486-110.168c15.525-3.062 27.271-16.775 27.271-33.185v-25.481c0-15.69-10.739-28.917-25.252-32.724 3.751-35.304-16.699-68.959-50.211-81.669-13.234-34.86-49.092-55.591-85.911-49.658-28.905-23.583-70.387-23.582-99.291 0-26.085-4.205-51.682 4.989-69.098 23.093l-20.066-29.749c-3.218-4.771-8.01-8.356-13.493-10.097l-47.814-15.18c-10.376-3.294-21.441 2.438-24.735 12.815l-3.59 11.308c-3.287 10.352 2.462 21.448 12.814 24.735zm368.055 313.741c-3.797 25.369-25.6 44.111-51.203 44.111h-33.062c-4.142 0-7.5 3.358-7.5 7.5s3.358 7.5 7.5 7.5c31.368-.249 35.344.637 44.7-1.015l-5.78 38.626c-3.134 20.95-21.473 36.749-42.658 36.749h-128.846c-21.184 0-39.523-15.799-42.658-36.749l-5.78-38.627c10.009 1.768 4.544.695 151.024 1.016 4.142 0 7.5-3.358 7.5-7.5s-3.358-7.5-7.5-7.5h-139.387c-25.652 0-47.413-18.79-51.203-44.111l-16.057-107.305h336.968zm-201.457-315.3c2.335.489 4.762-.16 6.54-1.75l.08-.071c24.179-21.633 60.645-21.633 84.895.063l.08.07c1.772 1.545 4.165 2.17 6.469 1.687 31.812-6.671 63.413 11.594 73.513 42.486.012.036.029.087.041.123.765 2.224 2.542 3.965 4.777 4.696 28.96 9.468 46.822 37.835 43.448 67.552h-234.984c-4.135 0-7.5 3.347-7.5 7.5 0 4.157 3.369 7.5 7.5 7.5l241.362.001h.011c10.377.006 18.818 8.45 18.818 18.828v25.481c0 10.382-8.446 18.828-18.828 18.829h-354.381c-10.382 0-18.828-8.447-18.828-18.829v-25.481c0-10.382 8.446-18.828 18.828-18.829h.001 83.017c4.135 0 7.5-3.35 7.5-7.5 0-4.151-3.364-7.5-7.5-7.5h-76.639c-2.812-24.766 9.134-48.584 29.951-61.317 9.165-5.615 14.088-5.631 16.527-8.114 2.369-2.412 1.594-4.428 5.902-12.678 13.228-25.267 41.476-38.604 69.4-32.747zm-165.115-18.638 3.59-11.308c.786-2.473 3.425-3.843 5.899-3.056l47.816 15.181c2.274.722 4.261 2.209 5.596 4.187l22.775 33.766c-2.865 4.53-5.28 9.396-7.088 14.161-3.518 1.336-5.709 2.456-6.956 3.038l-22.828-33.844c-.945-1.402-2.337-2.443-3.948-2.955l-41.8-13.27c-2.475-.786-3.843-3.424-3.056-5.9z"/></g></g></svg>